<?xml version="1.0" standalone="no"?><!DOCTYPE svg PUBLIC "-//W3C//DTD SVG 1.1//EN" "http://www.w3.org/Graphics/SVG/1.1/DTD/svg11.dtd"><svg t="1488462714901" class="icon" style="" viewBox="0 0 1024 1024" version="1.1" xmlns="http://www.w3.org/2000/svg" p-id="1448" xmlns:xlink="http://www.w3.org/1999/xlink" width="200" height="200"><defs><style type="text/css"></style></defs><path d="M512 64c-123.71 0-224 100.29-224 224s100.29 224 224 224 224-100.29 224-224S635.71 64 512 64z m0 384a160 160 0 1 1 160-160 160 160 0 0 1-160 160z" p-id="1449" fill="#515151"></path><path d="M512 512c212.08 0 384 171.92 384 384h64c0-247.42-200.58-448-448-448S64 648.58 64 896h64c0-212.08 171.92-384 384-384z" p-id="1450" fill="#515151"></path><path d="M96 896m-32 0a32 32 0 1 0 64 0 32 32 0 1 0-64 0Z" p-id="1451" fill="#515151"></path><path d="M928 896m-32 0a32 32 0 1 0 64 0 32 32 0 1 0-64 0Z" p-id="1452" fill="#515151"></path><path d="M512 64c-123.71 0-224 100.29-224 224s100.29 224 224 224 224-100.29 224-224S635.71 64 512 64z m0 384a160 160 0 1 1 160-160 160 160 0 0 1-160 160z" p-id="1453" fill="#515151"></path><path d="M512 512c212.08 0 384 171.92 384 384h64c0-247.42-200.58-448-448-448S64 648.58 64 896h64c0-212.08 171.92-384 384-384z" p-id="1454" fill="#515151"></path><path d="M96 896m-32 0a32 32 0 1 0 64 0 32 32 0 1 0-64 0Z" p-id="1455" fill="#515151"></path><path d="M928 896m-32 0a32 32 0 1 0 64 0 32 32 0 1 0-64 0Z" p-id="1456" fill="#515151"></path></svg>