<?xml version="1.0" standalone="no"?><!DOCTYPE svg PUBLIC "-//W3C//DTD SVG 1.1//EN" "http://www.w3.org/Graphics/SVG/1.1/DTD/svg11.dtd"><svg t="1488462508371" class="icon" style="" viewBox="0 0 1024 1024" version="1.1" xmlns="http://www.w3.org/2000/svg" p-id="1104" xmlns:xlink="http://www.w3.org/1999/xlink" width="200" height="200"><defs><style type="text/css"></style></defs><path d="M776.27 896H167.94a64.07 64.07 0 0 1-64-64V464a64.07 64.07 0 0 1 64-64h176c41 0 62.55-48.39 90.7-122.21 12.83-33.65 26.1-68.44 44-95.48 23.86-36 53.91-54.31 89.29-54.31 32.82 0 76.83 8.55 100.12 49.27 13 22.74 17.26 52.31 12.65 87.91-3.27 25.3-11.06 54.23-23.14 86-6.76 17.82-14.12 34.48-20.92 48.82H856a64 64 0 0 1 62.49 77.81l-79.71 367.91v0.16A64 64 0 0 1 776.27 896zM167.94 464v368h608.33L856 464.16V464H583.94a32 32 0 0 1-27.58-48.22 657.55 657.55 0 0 0 41.7-88.15c29.59-78.13 20-109 14.45-118.59-2.41-4.21-9.75-17-44.56-17-29.85 0-48.49 43-73.5 108.6-13.95 36.57-28.37 74.38-49.08 104.47-26.92 39.11-61 58.94-101.42 58.94z m688.19 0z" p-id="1105" fill="#515151"></path><path d="M263.94 432h64v432h-64z" p-id="1106" fill="#515151"></path></svg>